<svg xmlns="http://www.w3.org/2000/svg" version="1.1" xmlns:xlink="http://www.w3.org/1999/xlink" xmlns:svgjs="http://svgjs.dev/svgjs" width="1500" height="1500" viewBox="0 0 1500 1500"><rect width="1500" height="1500" fill="#39cccc"></rect><g transform="matrix(0.6666666666666666,0,0,0.6666666666666666,249.39393939393938,650.6411414336252)"><svg viewBox="0 0 396 79" data-background-color="#39cccc" preserveAspectRatio="xMidYMid meet" height="299" width="1500" xmlns="http://www.w3.org/2000/svg" xmlns:xlink="http://www.w3.org/1999/xlink"><g id="tight-bounds" transform="matrix(1,0,0,1,0.2400000000000091,-0.12199083573437974)"><svg viewBox="0 0 395.52 79.24398167146876" height="79.24398167146876" width="395.52"><g><svg viewBox="0 0 528.1593940845553 105.81880396554041" height="79.24398167146876" width="395.52"><g transform="matrix(1,0,0,1,132.63939408455522,12.60975845868596)"><svg viewBox="0 0 395.52000000000004 80.59928704816849" height="80.59928704816849" width="395.52000000000004"><g id="textblocktransform"><svg viewBox="0 0 395.52000000000004 80.59928704816849" height="80.59928704816849" width="395.52000000000004" id="textblock"><g><svg viewBox="0 0 395.52000000000004 53.06841963079694" height="53.06841963079694" width="395.52000000000004"><g transform="matrix(1,0,0,1,0,0)"><svg width="395.52000000000004" viewBox="1.5 -35.35 333.12 44.7" height="53.06841963079694" data-palette-color="#ffffff"><path d="M25.7-33.7L25.7-27.5 17.5-27.5 17.5 0 9.75 0 9.75-27.5 1.5-27.5 1.5-33.7 25.7-33.7ZM53.45-16.15L53.45 0 46.15 0 46.15-15Q46.15-17.2 45.05-18.45 43.95-19.7 42.2-19.7L42.2-19.7Q41.45-19.7 40.77-19.48 40.1-19.25 39.3-18.68 38.5-18.1 38-16.73 37.5-15.35 37.5-13.4L37.5-13.4 37.5 0 30.2 0 30.2-35.35 37.5-35.35 37.5-21.05Q39.45-25.6 45.1-25.6L45.1-25.6Q48.8-25.6 51.12-23.25 53.45-20.9 53.45-16.15L53.45-16.15ZM79.1-7.55L79.1-1.45Q76.5 0.25 71.15 0.25L71.15 0.25Q64.9 0.25 61.42-3.38 57.95-7 57.95-12.7L57.95-12.7Q57.95-18.75 61.32-22.18 64.7-25.6 69.65-25.6L69.65-25.6Q74.75-25.6 77.7-22.63 80.65-19.65 80.65-13.75L80.65-13.75Q80.65-12.6 80.25-9.8L80.25-9.8 65.35-9.8Q66.1-7.7 67.95-6.55 69.8-5.4 72.4-5.4L72.4-5.4Q76.25-5.4 79.1-7.55L79.1-7.55ZM69.95-20.05L69.95-20.05Q68.2-20.05 66.85-18.78 65.5-17.5 65.05-15L65.05-15 73.85-15 73.85-15.6Q73.5-20.05 69.95-20.05ZM119.54-9.8L119.54-9.8Q119.54-5.25 116.19-2.43 112.84 0.4 107.29 0.4L107.29 0.4Q101.34 0.4 97.59-1.7L97.59-1.7 97.59-9.45Q102.14-6.15 107.29-6.15L107.29-6.15Q109.04-6.15 110.19-7.08 111.34-8 111.34-9.5L111.34-9.5Q111.34-10 111.19-10.45 111.04-10.9 110.64-11.3 110.24-11.7 109.87-11.98 109.49-12.25 108.77-12.63 108.04-13 107.54-13.25 107.04-13.5 106.07-13.95 105.09-14.4 104.49-14.65L104.49-14.65Q101.24-16.15 99.27-18.35 97.29-20.55 97.29-24.2L97.29-24.2Q97.29-28.55 100.49-31.23 103.69-33.9 109.34-33.9L109.34-33.9Q114.39-33.9 118.04-32.2L118.04-32.2 118.04-25Q113.99-27.35 109.64-27.35L109.64-27.35Q107.69-27.35 106.67-26.55 105.64-25.75 105.64-24.5 105.64-23.25 106.89-22.28 108.14-21.3 110.64-20.2L110.64-20.2Q112.19-19.5 113.22-18.98 114.24-18.45 115.57-17.53 116.89-16.6 117.67-15.58 118.44-14.55 118.99-13.05 119.54-11.55 119.54-9.8ZM142.99-7.3L142.99-1.2Q140.04 0.4 135.89 0.4L135.89 0.4Q130.19 0.4 126.49-3.23 122.79-6.85 122.79-12.6L122.79-12.6Q122.89-18.3 126.49-22.03 130.09-25.75 136.34-25.75L136.34-25.75Q140.19-25.75 142.99-24.3L142.99-24.3 142.99-18.05Q140.34-19.7 137.09-19.7L137.09-19.7Q134.04-19.7 132.14-17.88 130.24-16.05 130.19-12.6L130.19-12.6Q130.39-9.25 132.19-7.4 133.99-5.55 136.94-5.55L136.94-5.55Q140.09-5.55 142.99-7.3L142.99-7.3ZM171.09-12.8L171.09-12.8Q171.09-7.05 167.81-3.33 164.54 0.4 158.69 0.4L158.69 0.4Q152.74 0.4 149.49-3.18 146.24-6.75 146.24-12.35L146.24-12.35Q146.24-18.2 149.64-21.98 153.04-25.75 158.69-25.75L158.69-25.75Q164.59-25.75 167.84-22.1 171.09-18.45 171.09-12.8ZM155.04-17.95Q153.84-15.9 153.84-12.65 153.84-9.4 155.06-7.33 156.29-5.25 158.74-5.25L158.74-5.25Q161.14-5.25 162.31-7.28 163.49-9.3 163.49-12.55L163.49-12.55Q163.49-20 158.64-20L158.64-20Q156.24-20 155.04-17.95ZM183.13-3.75L183.13 9.35 175.83 9.35 175.83-25.35 183.13-25.35 183.13-21.45Q185.78-25.65 190.78-25.65L190.78-25.65Q195.68-25.65 198.66-22.18 201.63-18.7 201.63-12.75L201.63-12.75Q201.63-7.1 198.76-3.4 195.88 0.3 190.78 0.3L190.78 0.3Q185.63 0.3 183.13-3.75L183.13-3.75ZM183.13-12.95L183.13-12.95Q183.13-9.7 184.73-7.75 186.33-5.8 188.83-5.8L188.83-5.8Q191.23-5.8 192.73-7.63 194.23-9.45 194.23-12.6L194.23-12.6Q194.23-16.05 192.71-17.82 191.18-19.6 188.83-19.6L188.83-19.6Q186.53-19.6 184.83-17.85 183.13-16.1 183.13-12.95ZM226.28-7.55L226.28-1.45Q223.68 0.25 218.33 0.25L218.33 0.25Q212.08 0.25 208.61-3.38 205.13-7 205.13-12.7L205.13-12.7Q205.13-18.75 208.51-22.18 211.88-25.6 216.83-25.6L216.83-25.6Q221.93-25.6 224.88-22.63 227.83-19.65 227.83-13.75L227.83-13.75Q227.83-12.6 227.43-9.8L227.43-9.8 212.53-9.8Q213.28-7.7 215.13-6.55 216.98-5.4 219.58-5.4L219.58-5.4Q223.43-5.4 226.28-7.55L226.28-7.55ZM217.13-20.05L217.13-20.05Q215.38-20.05 214.03-18.78 212.68-17.5 212.23-15L212.23-15 221.03-15 221.03-15.6Q220.68-20.05 217.13-20.05ZM273.58-33.7L273.58 0 265.83 0 265.83-13.45 253.48-13.45 253.48 0 245.78 0 245.78-33.7 253.48-33.7 253.48-20 265.83-20 265.83-33.7 273.58-33.7ZM302.82-25.35L302.82 0 295.52 0 295.52-4.05Q293.52 0.2 287.82 0.2L287.82 0.2Q283.92 0.2 281.75-1.98 279.57-4.15 279.57-8.4L279.57-8.4 279.57-25.35 286.87-25.35 286.87-10.05Q286.87-5.6 290.77-5.6L290.77-5.6Q295.52-5.6 295.52-11.95L295.52-11.95 295.52-25.35 302.82-25.35ZM316.12-3.95L316.12 0 308.82 0 308.82-35.35 316.12-35.35 316.12-21.45Q318.72-25.65 323.67-25.65L323.67-25.65Q328.42-25.65 331.52-22.2 334.62-18.75 334.62-12.75L334.62-12.75Q334.62-7.4 331.65-3.55 328.67 0.3 323.72 0.3L323.72 0.3Q318.67 0.3 316.12-3.95L316.12-3.95ZM316.12-12.95L316.12-12.95Q316.12-9.7 317.67-7.75 319.22-5.8 321.72-5.8L321.72-5.8Q324.02-5.8 325.62-7.68 327.22-9.55 327.22-12.6L327.22-12.6Q327.22-15.9 325.65-17.75 324.07-19.6 321.77-19.6 319.47-19.6 317.8-17.85 316.12-16.1 316.12-12.95Z" opacity="1" transform="matrix(1,0,0,1,0,0)" fill="#ffffff" class="wordmark-text-0" data-fill-palette-color="primary" id="text-0"></path></svg></g></svg></g><g transform="matrix(1,0,0,1,94.9248,65.59659986355696)"><svg viewBox="0 0 205.67040000000003 15.002687184611544" height="15.002687184611544" width="205.67040000000003"><g transform="matrix(1,0,0,1,0,0)"><svg width="205.67040000000003" viewBox="3.15 -42.95 600.39 43.800000000000004" height="15.002687184611544" data-palette-color="#ffffff"><path d="M16.1 0.85Q8.85 0.85 3.15-1.85L3.15-1.85 3.15-6.45Q8.9-3.4 16.1-3.4L16.1-3.4Q20.25-3.4 22.18-5.15 24.1-6.9 24.1-9.75L24.1-9.75Q24.1-12.45 22.33-13.8 20.55-15.15 17.1-16.15L17.1-16.15 13.7-17.1Q10.8-17.95 8.75-19.05 6.7-20.15 5.33-22.23 3.95-24.3 3.95-27.65L3.95-27.65Q3.95-33 7.08-35.8 10.2-38.6 15.95-38.6L15.95-38.6Q19.3-38.6 21.85-37.98 24.4-37.35 27.15-36.1L27.15-36.1 27.15-31.6Q22.05-34.35 15.95-34.35L15.95-34.35Q12.25-34.35 10.55-32.63 8.85-30.9 8.85-27.9L8.85-27.9Q8.9-25.15 10.53-23.85 12.15-22.55 15.6-21.55L15.6-21.55 19.05-20.6Q22.1-19.75 24.23-18.63 26.35-17.5 27.68-15.38 29-13.25 29-9.85L29-9.85Q28.95-4.9 25.53-2.02 22.1 0.85 16.1 0.85L16.1 0.85ZM48.6 0.85Q44.2 0.85 41.12-1.07 38.05-3 36.5-6.33 34.95-9.65 34.95-13.8L34.95-13.8Q34.95-17.95 36.5-21.28 38.05-24.6 41.12-26.53 44.2-28.45 48.6-28.45L48.6-28.45Q53-28.45 56.07-26.53 59.15-24.6 60.67-21.28 62.2-17.95 62.2-13.8L62.2-13.8Q62.2-9.65 60.67-6.33 59.15-3 56.07-1.07 53 0.85 48.6 0.85L48.6 0.85ZM48.6-3.4Q52.75-3.4 55.02-6.3 57.3-9.2 57.3-13.8L57.3-13.8Q57.3-18.4 55.02-21.28 52.75-24.15 48.6-24.15L48.6-24.15Q44.45-24.15 42.15-21.28 39.85-18.4 39.85-13.8L39.85-13.8Q39.85-9.2 42.15-6.3 44.45-3.4 48.6-3.4L48.6-3.4ZM77.95-38.6Q76.2-38.6 75.57-37.88 74.95-37.15 74.95-35.15L74.95-35.15 74.95-27.65 80.45-27.65 80.45-23.25 74.95-23.25 74.95 0 70.25 0 70.25-23.25 66.84-23.25 66.84-27.65 70.25-27.65 70.25-36.4Q70.25-39.95 71.9-41.45 73.55-42.95 77.3-42.95L77.3-42.95Q78.5-42.95 80.45-42.6L80.45-42.6 80.45-38.3Q79.3-38.6 77.95-38.6L77.95-38.6ZM98.24-22.95L91.84-22.95 91.84-7.15Q91.84-5.15 92.47-4.42 93.09-3.7 94.79-3.7L94.79-3.7Q96.29-3.7 97.99-4.1L97.99-4.1 97.99 0.15Q95.74 0.65 93.99 0.65L93.99 0.65Q90.19 0.65 88.67-0.9 87.14-2.45 87.14-6.1L87.14-6.1 87.14-22.95 83.54-22.95 83.54-27.3 87.14-27.3 87.14-36.8 91.84-36.8 91.84-27.3 98.24-27.3 98.24-22.95ZM137.39-27.65L142.29-27.65 133.79 0.45 128.74 0.45 121.89-20.75 115.09 0.45 110.04 0.45 101.49-27.65 106.39-27.65 112.59-5.7 119.19-27.65 124.59-27.65 131.24-5.7 137.39-27.65ZM156.44-27.65Q160.84-27.65 163.14-26.18 165.44-24.7 166.19-22.23 166.94-19.75 166.94-16L166.94-16 166.94 0 162.24 0 162.24-2.75Q160.34-0.95 158.44-0.15 156.54 0.65 154.34 0.65L154.34 0.65Q151.74 0.65 149.64-0.48 147.54-1.6 146.31-3.73 145.09-5.85 145.09-8.75L145.09-8.75Q145.09-13.25 147.89-15.73 150.69-18.2 155.44-18.2L155.44-18.2Q159.19-18.2 162.19-16.55L162.19-16.55Q162.14-19 161.69-20.45 161.24-21.9 159.84-22.68 158.44-23.45 155.69-23.45L155.69-23.45 151.99-23.45 151.99-27.65 156.44-27.65ZM154.99-3.4Q156.69-3.4 158.56-4.2 160.44-5 162.24-6.6L162.24-6.6 162.24-12.9Q159.44-14.3 156.14-14.3L156.14-14.3Q153.49-14.3 151.69-13.03 149.89-11.75 149.89-8.75L149.89-8.75Q149.89-5.95 151.41-4.67 152.94-3.4 154.99-3.4L154.99-3.4ZM187.74-28.25L188.89-28.25 188.89-23.85 187.74-23.85Q183.44-23.85 179.39-20.4L179.39-20.4 179.39 0 174.69 0 174.69-27.65 179.39-27.65 179.39-24.55Q183.49-28.25 187.74-28.25L187.74-28.25ZM198.08-13.45Q198.18-8.85 200.38-6.1 202.58-3.35 207.38-3.35L207.38-3.35Q211.03-3.35 215.38-5.4L215.38-5.4 216.83-1.5Q212.28 0.85 206.98 0.85L206.98 0.85Q202.58 0.85 199.48-1 196.38-2.85 194.78-6.15 193.18-9.45 193.18-13.85L193.18-13.85Q193.18-18.5 194.86-21.78 196.53-25.05 199.38-26.75 202.23-28.45 205.78-28.45L205.78-28.45Q211.23-28.45 214.33-25.05 217.43-21.65 217.43-15.3L217.43-15.3 217.43-13.45 198.08-13.45ZM205.78-24.25Q199.58-24.25 198.38-17.4L198.38-17.4 212.48-17.4Q212.23-20.9 210.58-22.58 208.93-24.25 205.78-24.25L205.78-24.25ZM247.83-28.45Q253.43-28.45 256.75-24.7 260.08-20.95 260.08-13.8L260.08-13.8Q260.08-6.65 256.75-2.9 253.43 0.85 247.83 0.85L247.83 0.85Q243.78 0.85 239.83-2.5L239.83-2.5 239.83 0 235.13 0 235.13-42.3 239.83-42.3 239.83-25.05Q243.83-28.45 247.83-28.45L247.83-28.45ZM247.18-3.5Q251.13-3.5 253.18-6.13 255.23-8.75 255.23-13.8L255.23-13.8Q255.23-18.85 253.18-21.45 251.13-24.05 247.18-24.05L247.18-24.05Q243.43-24.05 239.83-20.95L239.83-20.95 239.83-6.6Q243.53-3.5 247.18-3.5L247.18-3.5ZM285.68-27.65L290.38-27.65 290.38 0 285.68 0 285.68-2.95Q281.58 0.6 277.23 0.6L277.23 0.6Q272.13 0.6 269.65-2.1 267.18-4.8 267.18-10.95L267.18-10.95 267.18-27.65 271.88-27.65 271.88-10.95Q271.88-7.05 273.2-5.4 274.53-3.75 277.88-3.75L277.88-3.75Q281.78-3.75 285.68-7.15L285.68-7.15 285.68-27.65ZM307.77 0.85Q304.72 0.85 302.37 0.35 300.02-0.15 297.47-1.35L297.47-1.35 297.47-6Q302.22-3.35 307.77-3.35L307.77-3.35Q310.57-3.35 311.8-4.48 313.02-5.6 313.02-7.45L313.02-7.45Q313.02-9.25 312.05-10.1 311.07-10.95 308.87-11.55L308.87-11.55 305.62-12.35Q302.12-13.2 300.12-15.05 298.12-16.9 298.12-20.5L298.12-20.5Q298.12-24.25 300.57-26.35 303.02-28.45 307.77-28.45L307.77-28.45Q310.22-28.45 312.32-27.98 314.42-27.5 316.52-26.65L316.52-26.65 316.52-22.25Q314.47-23.2 312.47-23.73 310.47-24.25 307.92-24.25L307.92-24.25Q305.27-24.25 304.1-23.23 302.92-22.2 302.92-20.65L302.92-20.65Q302.92-18.95 303.95-18.07 304.97-17.2 306.92-16.7L306.92-16.7 310.22-15.95Q312.72-15.35 314.35-14.45 315.97-13.55 316.9-11.93 317.82-10.3 317.82-7.6L317.82-7.6Q317.82-3.55 315.1-1.35 312.37 0.85 307.77 0.85L307.77 0.85ZM325.07-32.85L325.07-40.4 329.77-40.4 329.77-32.85 325.07-32.85ZM325.07 0L325.07-27.65 329.77-27.65 329.77 0 325.07 0ZM351.92-28.25Q357.02-28.25 359.49-25.55 361.97-22.85 361.97-16.65L361.97-16.65 361.97 0 357.27 0 357.27-16.65Q357.27-20.55 355.94-22.2 354.62-23.85 351.27-23.85L351.27-23.85Q347.37-23.85 343.47-20.45L343.47-20.45 343.47 0 338.77 0 338.77-27.65 343.47-27.65 343.47-24.7Q347.57-28.25 351.92-28.25L351.92-28.25ZM373.92-13.45Q374.02-8.85 376.22-6.1 378.42-3.35 383.22-3.35L383.22-3.35Q386.87-3.35 391.22-5.4L391.22-5.4 392.67-1.5Q388.12 0.85 382.82 0.85L382.82 0.85Q378.42 0.85 375.32-1 372.22-2.85 370.62-6.15 369.02-9.45 369.02-13.85L369.02-13.85Q369.02-18.5 370.69-21.78 372.37-25.05 375.22-26.75 378.07-28.45 381.62-28.45L381.62-28.45Q387.07-28.45 390.17-25.05 393.27-21.65 393.27-15.3L393.27-15.3 393.27-13.45 373.92-13.45ZM381.62-24.25Q375.42-24.25 374.22-17.4L374.22-17.4 388.32-17.4Q388.07-20.9 386.42-22.58 384.77-24.25 381.62-24.25L381.62-24.25ZM408.36 0.85Q405.31 0.85 402.96 0.35 400.61-0.15 398.06-1.35L398.06-1.35 398.06-6Q402.81-3.35 408.36-3.35L408.36-3.35Q411.16-3.35 412.39-4.48 413.61-5.6 413.61-7.45L413.61-7.45Q413.61-9.25 412.64-10.1 411.66-10.95 409.46-11.55L409.46-11.55 406.21-12.35Q402.71-13.2 400.71-15.05 398.71-16.9 398.71-20.5L398.71-20.5Q398.71-24.25 401.16-26.35 403.61-28.45 408.36-28.45L408.36-28.45Q410.81-28.45 412.91-27.98 415.01-27.5 417.11-26.65L417.11-26.65 417.11-22.25Q415.06-23.2 413.06-23.73 411.06-24.25 408.51-24.25L408.51-24.25Q405.86-24.25 404.69-23.23 403.51-22.2 403.51-20.65L403.51-20.65Q403.51-18.95 404.54-18.07 405.56-17.2 407.51-16.7L407.51-16.7 410.81-15.95Q413.31-15.35 414.94-14.45 416.56-13.55 417.49-11.93 418.41-10.3 418.41-7.6L418.41-7.6Q418.41-3.55 415.69-1.35 412.96 0.85 408.36 0.85L408.36 0.85ZM434.06 0.85Q431.01 0.85 428.66 0.35 426.31-0.15 423.76-1.35L423.76-1.35 423.76-6Q428.51-3.35 434.06-3.35L434.06-3.35Q436.86-3.35 438.09-4.48 439.31-5.6 439.31-7.45L439.31-7.45Q439.31-9.25 438.34-10.1 437.36-10.95 435.16-11.55L435.16-11.55 431.91-12.35Q428.41-13.2 426.41-15.05 424.41-16.9 424.41-20.5L424.41-20.5Q424.41-24.25 426.86-26.35 429.31-28.45 434.06-28.45L434.06-28.45Q436.51-28.45 438.61-27.98 440.71-27.5 442.81-26.65L442.81-26.65 442.81-22.25Q440.76-23.2 438.76-23.73 436.76-24.25 434.21-24.25L434.21-24.25Q431.56-24.25 430.39-23.23 429.21-22.2 429.21-20.65L429.21-20.65Q429.21-18.95 430.24-18.07 431.26-17.2 433.21-16.7L433.21-16.7 436.51-15.95Q439.01-15.35 440.64-14.45 442.26-13.55 443.19-11.93 444.11-10.3 444.11-7.6L444.11-7.6Q444.11-3.55 441.39-1.35 438.66 0.85 434.06 0.85L434.06 0.85ZM475.5-28.25Q480.61-28.25 483.08-25.55 485.56-22.85 485.56-16.65L485.56-16.65 485.56 0 480.86 0 480.86-16.65Q480.86-20.55 479.53-22.2 478.21-23.85 474.86-23.85L474.86-23.85Q470.96-23.85 467.06-20.45L467.06-20.45 467.06 0 462.36 0 462.36-27.65 467.06-27.65 467.06-24.7Q471.16-28.25 475.5-28.25L475.5-28.25ZM497.5-13.45Q497.6-8.85 499.8-6.1 502-3.35 506.8-3.35L506.8-3.35Q510.45-3.35 514.8-5.4L514.8-5.4 516.25-1.5Q511.7 0.85 506.4 0.85L506.4 0.85Q502 0.85 498.9-1 495.8-2.85 494.2-6.15 492.6-9.45 492.6-13.85L492.6-13.85Q492.6-18.5 494.28-21.78 495.95-25.05 498.8-26.75 501.65-28.45 505.2-28.45L505.2-28.45Q510.65-28.45 513.75-25.05 516.85-21.65 516.85-15.3L516.85-15.3 516.85-13.45 497.5-13.45ZM505.2-24.25Q499-24.25 497.8-17.4L497.8-17.4 511.9-17.4Q511.65-20.9 510-22.58 508.35-24.25 505.2-24.25L505.2-24.25ZM526.75-13.45Q526.85-8.85 529.05-6.1 531.25-3.35 536.05-3.35L536.05-3.35Q539.7-3.35 544.05-5.4L544.05-5.4 545.5-1.5Q540.95 0.85 535.65 0.85L535.65 0.85Q531.25 0.85 528.15-1 525.05-2.85 523.45-6.15 521.85-9.45 521.85-13.85L521.85-13.85Q521.85-18.5 523.52-21.78 525.2-25.05 528.05-26.75 530.9-28.45 534.45-28.45L534.45-28.45Q539.9-28.45 543-25.05 546.1-21.65 546.1-15.3L546.1-15.3 546.1-13.45 526.75-13.45ZM534.45-24.25Q528.25-24.25 527.05-17.4L527.05-17.4 541.15-17.4Q540.9-20.9 539.25-22.58 537.6-24.25 534.45-24.25L534.45-24.25ZM571.4-42.3L576.1-42.3 576.1 0 571.4 0 571.4-2.5Q567.45 0.85 563.4 0.85L563.4 0.85Q557.8 0.85 554.45-2.9 551.1-6.65 551.1-13.8L551.1-13.8Q551.1-20.95 554.45-24.7 557.8-28.45 563.4-28.45L563.4-28.45Q567.4-28.45 571.4-25.05L571.4-25.05 571.4-42.3ZM564-3.5Q567.6-3.5 571.4-6.6L571.4-6.6 571.4-20.95Q567.7-24.05 564-24.05L564-24.05Q560.05-24.05 558.02-21.45 556-18.85 556-13.8L556-13.8Q556-8.75 558.02-6.13 560.05-3.5 564-3.5L564-3.5ZM593.49 0.85Q590.44 0.85 588.09 0.35 585.74-0.15 583.19-1.35L583.19-1.35 583.19-6Q587.94-3.35 593.49-3.35L593.49-3.35Q596.29-3.35 597.52-4.48 598.74-5.6 598.74-7.45L598.74-7.45Q598.74-9.25 597.77-10.1 596.79-10.95 594.59-11.55L594.59-11.55 591.34-12.35Q587.84-13.2 585.84-15.05 583.84-16.9 583.84-20.5L583.84-20.5Q583.84-24.25 586.29-26.35 588.74-28.45 593.49-28.45L593.49-28.45Q595.94-28.45 598.04-27.98 600.14-27.5 602.24-26.65L602.24-26.65 602.24-22.25Q600.19-23.2 598.19-23.73 596.19-24.25 593.64-24.25L593.64-24.25Q590.99-24.25 589.82-23.23 588.64-22.2 588.64-20.65L588.64-20.65Q588.64-18.95 589.67-18.07 590.69-17.2 592.64-16.7L592.64-16.7 595.94-15.95Q598.44-15.35 600.07-14.45 601.69-13.55 602.62-11.93 603.54-10.3 603.54-7.6L603.54-7.6Q603.54-3.55 600.82-1.35 598.09 0.85 593.49 0.85L593.49 0.85Z" opacity="1" transform="matrix(1,0,0,1,0,0)" fill="#ffffff" class="slogan-text-1" data-fill-palette-color="secondary" id="text-1"></path></svg></g></svg></g></svg></g></svg></g><g><svg viewBox="0 0 120.11121385179521 105.81880396554041" height="105.81880396554041" width="120.11121385179521"><g><svg xmlns="http://www.w3.org/2000/svg" xmlns:xlink="http://www.w3.org/1999/xlink" version="1.1" x="0" y="0" viewBox="6.3 11.5 87.4 77" style="enable-background:new 0 0 100 100;" xml:space="preserve" height="105.81880396554041" width="120.11121385179521" class="icon-icon-0" data-fill-palette-color="accent" id="icon-0"><path d="M72.3 12.3L72.3 12.3 72.3 12.3l-0.4-0.8H28.2L6.3 50l21.8 38.5h43.7L93.7 50 72.3 12.3zM33.3 25.3L9.9 47.7l18.6-32.8L33.3 25.3zM70.7 14.8l6.4 35.7L36.9 25.8 70.7 14.8zM35.5 27.3l41 25.2-41 23.3V27.3zM77 54.5l-7.2 30.8-32.6-8.1L77 54.5zM33.5 75L9.9 50.5l23.6-22.7V75zM33.2 77.6l-4.6 7.7L11.5 55.1 33.2 77.6zM35 78.6l31.4 7.9H30.2L35 78.6zM79.3 53.3l11.6-2.5L72.1 84 79.3 53.3zM90.7 48.9l-11.4 2.5-5.9-33.1L90.7 48.9zM35 24.3l-5-10.8h38.2L35 24.3z" fill="#001f3f" data-fill-palette-color="accent"></path></svg></g></svg></g></svg></g><defs></defs></svg><rect width="395.52" height="79.24398167146876" fill="none" stroke="none" visibility="hidden"></rect></g></svg></g></svg>